<svg width="279" height="279" viewBox="0 0 279 279" fill="none" xmlns="http://www.w3.org/2000/svg">
<path d="M237.8 139.3C237.8 152.235 235.252 165.044 230.302 176.994C225.352 188.945 218.097 199.803 208.95 208.95L139.3 139.3H237.8Z" fill="#A155B9"/>
<path d="M208.95 208.95C198.224 219.676 185.166 227.78 170.794 232.629C156.422 237.479 141.123 238.944 126.092 236.91C111.06 234.876 96.7015 229.398 84.135 220.903C71.5685 212.408 61.1337 201.125 53.6442 187.935C46.1547 174.744 41.8128 160.002 40.957 144.858C40.1011 129.713 42.7545 114.576 48.7102 100.625C54.666 86.6749 63.7631 74.2884 75.2926 64.4315C86.822 54.5747 100.472 47.5137 115.179 43.7992L139.3 139.3L208.95 208.95Z" fill="#16BFD6"/>
<path d="M113.806 44.1564C128.54 40.2087 143.988 39.7365 158.935 42.7771C173.882 45.8176 187.919 52.2879 199.939 61.678C211.959 71.0681 221.634 83.1214 228.201 96.888C234.769 110.655 238.05 125.758 237.785 141.009L139.3 139.3L113.806 44.1564Z" fill="#F765A3"/>
</svg>
